<svg xmlns="http://www.w3.org/2000/svg" viewBox="0 0 361.70 55.89" fill="none"><path d="M87.19,21.37L83.51,21.37L83.51,39.93L105.69,39.93L105.69,36.22L87.19,36.22L87.19,21.37" fill="currentColor"/><path d="M265.52,21.37L265.52,25.07L276.57,25.07L276.57,39.86L280.25,39.86L280.25,25.07L291.29,25.07L291.29,21.37L265.52,21.37" fill="currentColor"/><path d="M156.01,28.77L156.01,25.07L168.9,25.07C169.92,25.07 170.74,25.9 170.74,26.92C170.74,27.94 169.92,28.77 168.9,28.77L156.01,28.77M174.42,26.75C174.33,23.71 171.7,21.37 168.67,21.37L152.32,21.37L152.32,39.86L156.01,39.86L156.01,32.46L163.62,32.46L169.57,39.93L174.42,39.93L168.48,32.46L168.9,32.46C172.01,32.46 174.52,29.89 174.42,26.75" fill="currentColor"/><path d="M356.01,28.66L343.38,28.66C342.48,28.66 341.66,28.05 341.51,27.16C341.33,26.03 342.19,25.06 343.28,25.06L360.67,25.06L360.67,21.37L343.49,21.37C340.49,21.37 337.88,23.68 337.79,26.69C337.7,29.8 340.18,32.35 343.26,32.35L355.87,32.35C356.88,32.35 357.8,33.08 357.9,34.09C358.02,35.25 357.11,36.22 355.98,36.22L338.49,36.22L338.49,39.91L355.77,39.91C358.84,39.91 361.51,37.54 361.61,34.46C361.7,31.27 359.16,28.66 356.01,28.66" fill="currentColor"/><path d="M130.53,36.16L123.16,36.16C120.11,36.16 117.64,33.68 117.64,30.61C117.64,27.55 120.11,25.07 123.16,25.07L130.53,25.07C133.57,25.07 136.05,27.55 136.05,30.61C136.05,33.68 133.57,36.16 130.53,36.16M130.53,21.37L123.16,21.37C118.08,21.37 113.96,25.51 113.96,30.61C113.96,35.72 118.08,39.86 123.16,39.86L130.53,39.86C135.61,39.86 139.73,35.72 139.73,30.61C139.73,25.51 135.61,21.37 130.53,21.37" fill="currentColor"/><path d="M186.28,21.37H189.96V39.86H186.28Z" fill="currentColor"/><path d="M202.28,31.23C202.6,36.14 206.88,39.86 211.78,39.86L224.34,39.86L224.34,36.16L211.69,36.16C208.67,36.16 206.03,33.82 205.94,30.78C205.85,27.64 208.36,25.07 211.46,25.07L224.34,25.07L224.34,21.37L211.46,21.37C206.18,21.37 201.93,25.85 202.28,31.23" fill="currentColor"/><path d="M242.45,32.46L245.32,26.56C246.34,24.47 249.3,24.47 250.32,26.56L253.19,32.46L242.45,32.46M253.5,24.75C252.5,22.68 250.41,21.37 248.12,21.37L247.82,21.37L247.53,21.37C245.24,21.37 243.15,22.68 242.15,24.75L234.83,39.86L238.87,39.86L240.66,36.15L254.98,36.15L256.78,39.86L260.81,39.86L253.5,24.75" fill="currentColor"/><path d="M323.35,30.12L323.36,30.12C323.34,33.17 320.87,35.63 317.84,35.63L310.47,35.63C307.44,35.63 304.97,33.17 304.95,30.12L304.95,30.12L304.95,21.37L301.27,21.37L301.27,30.12C301.29,35.21 305.4,39.33 310.47,39.33L317.84,39.33C322.91,39.33 327.02,35.21 327.04,30.12L327.04,21.37L323.36,21.37L323.35,21.37L323.35,30.12" fill="currentColor"/><path d="M13,49.24C13,51.03 13,52.82 13,54.61C13,54.75 12.99,54.91 12.95,55.04C12.76,55.65 12.02,55.89 11.52,55.51C11.44,55.45 11.37,55.38 11.31,55.31C7.69,51.67 4.07,48.03 0.45,44.39C0.17,44.1 0.01,43.79 0.12,43.38C0.23,42.99 0.55,42.71 0.97,42.69C1.06,42.69 1.15,42.69 1.25,42.69C4.81,42.71 8.36,42.73 11.92,42.74C12.22,42.74 12.48,42.81 12.7,43.02C12.9,43.23 12.98,43.48 12.98,43.76C12.98,44.35 12.98,44.94 12.98,45.53C12.98,46.77 12.98,48 12.98,49.24L13,49.24" fill="currentColor"/><path d="M27.12,49.32C27.15,51.06 27.19,52.8 27.22,54.53C27.22,54.61 27.22,54.69 27.22,54.77C27.22,55.16 27.04,55.45 26.68,55.61C26.32,55.76 25.98,55.71 25.69,55.45C25.65,55.42 25.61,55.38 25.57,55.34C21.93,51.7 18.28,48.06 14.63,44.43C14.41,44.2 14.27,43.95 14.29,43.62C14.32,43.19 14.62,42.85 15.05,42.78C15.16,42.77 15.27,42.76 15.38,42.76C18.89,42.79 22.39,42.83 25.9,42.86C25.97,42.86 26.04,42.86 26.1,42.87C26.66,42.92 27.01,43.29 27.02,43.84C27.04,44.47 27.05,45.09 27.06,45.72C27.08,46.92 27.1,48.12 27.12,49.32L27.12,49.32" fill="currentColor"/><path d="M6.42,28.52C8.08,28.58 9.74,28.65 11.4,28.72C11.6,28.72 11.8,28.73 12,28.75C12.53,28.8 12.88,29.19 12.89,29.72C12.9,30.14 12.9,30.56 12.9,30.97C12.92,34.06 12.94,37.14 12.96,40.23C12.96,40.3 12.96,40.37 12.96,40.44C12.95,40.83 12.76,41.1 12.41,41.26C12.07,41.41 11.74,41.36 11.44,41.12C11.38,41.06 11.32,41 11.25,40.94C8.08,37.73 4.9,34.51 1.73,31.3C1.27,30.84 0.82,30.36 0.38,29.89C0.15,29.65 0.03,29.37 0.1,29.04C0.2,28.58 0.53,28.29 1,28.3C1.55,28.31 2.09,28.33 2.64,28.36C3.9,28.41 5.16,28.47 6.42,28.52L6.42,28.52" fill="currentColor"/><path d="M41.06,49.42C41.16,50.89 41.26,52.32 41.35,53.75C41.37,54.07 41.39,54.39 41.42,54.72C41.44,55.11 41.31,55.42 40.95,55.59C40.58,55.77 40.24,55.71 39.93,55.46C39.88,55.42 39.84,55.38 39.79,55.34C36.07,51.83 32.42,48.25 28.79,44.65C28.71,44.58 28.64,44.51 28.57,44.43C28.3,44.14 28.23,43.8 28.38,43.44C28.54,43.07 28.83,42.9 29.23,42.91C30.58,42.93 31.92,42.95 33.27,42.98C35.29,43.02 37.3,43.06 39.32,43.11C39.47,43.11 39.61,43.11 39.76,43.12C40.32,43.15 40.69,43.52 40.73,44.08C40.83,45.76 40.94,47.44 41.04,49.12C41.05,49.24 41.06,49.35 41.06,49.42" fill="currentColor"/><path d="M12.79,21.28C12.82,23.29 12.83,24.87 12.85,26.46C12.85,26.53 12.85,26.59 12.86,26.66C12.87,27.01 12.75,27.28 12.44,27.45C12.12,27.62 11.79,27.61 11.48,27.41C11.39,27.36 11.31,27.28 11.23,27.2C8.62,24.6 6.05,21.97 3.57,19.26C2.49,18.09 1.44,16.88 0.38,15.69C0.23,15.53 0.13,15.34 0.09,15.11C0,14.57 0.39,14.11 0.93,14.16C1.36,14.19 1.79,14.27 2.22,14.33C3.95,14.57 5.68,14.82 7.41,15.05C8.82,15.25 10.24,15.44 11.65,15.63C11.73,15.64 11.8,15.65 11.88,15.67C12.28,15.77 12.69,16.14 12.7,16.68C12.72,18.36 12.76,20.03 12.79,21.28" fill="currentColor"/><path d="M48.43,43.38C49.52,43.43 51.21,43.5 52.9,43.57C53.45,43.6 53.83,43.96 53.92,44.51C54.39,47.51 54.87,50.51 55.35,53.51C55.42,53.91 55.48,54.32 55.56,54.72C55.7,55.43 55.1,55.84 54.49,55.64C54.3,55.58 54.12,55.45 53.97,55.32C52.32,53.87 50.66,52.44 49.04,50.96C46.8,48.92 44.59,46.83 42.37,44.77C42.21,44.62 42.07,44.46 42.01,44.24C41.85,43.71 42.19,43.21 42.74,43.2C43.21,43.2 43.67,43.22 44.14,43.24C45.37,43.28 46.6,43.32 48.43,43.38" fill="currentColor"/><path d="M12.5,9.12C12.55,10.79 12.59,12.28 12.63,13.76C12.65,14.36 12.25,14.67 11.67,14.54C11.43,14.49 11.24,14.37 11.07,14.19C10.51,13.6 9.95,13.02 9.39,12.42C7.32,10.21 5.34,7.93 3.45,5.56C2.38,4.23 1.37,2.84 0.35,1.48C0.14,1.21 0.02,0.9 0.1,0.55C0.2,0.17 0.45,0 0.84,0.08C0.92,0.1 1,0.13 1.09,0.17C4,1.23 6.94,2.23 9.89,3.18C10.38,3.35 10.88,3.5 11.37,3.65C11.62,3.73 11.83,3.85 12.01,4.03C12.21,4.23 12.33,4.46 12.34,4.75C12.39,6.27 12.45,7.79 12.5,9.12" fill="currentColor"/><path d="M21.02,29.13C22.6,29.21 24.19,29.29 25.77,29.38C26.4,29.42 26.72,29.75 26.74,30.4C26.77,31.55 26.79,32.71 26.82,33.86C26.85,35.67 26.89,37.48 26.93,39.29C26.93,39.43 26.93,39.59 26.88,39.72C26.73,40.21 26.13,40.43 25.67,40.17C25.56,40.11 25.47,40.02 25.38,39.94C22.18,36.77 18.97,33.6 15.77,30.43C15.62,30.28 15.49,30.12 15.44,29.9C15.35,29.4 15.69,28.96 16.2,28.93C16.36,28.92 16.53,28.93 16.69,28.94L21.02,29.14L21.02,29.13" fill="currentColor"/><path d="M40.14,34.96C40.21,36.14 40.28,37.32 40.35,38.5C40.37,38.79 40.28,39.03 40.04,39.2C39.77,39.37 39.49,39.37 39.22,39.23C39.09,39.16 38.98,39.05 38.88,38.95C36.39,36.52 33.9,34.08 31.4,31.65C31.21,31.46 31.01,31.28 30.83,31.08C30.74,30.99 30.66,30.88 30.61,30.76C30.41,30.3 30.72,29.81 31.24,29.79C31.5,29.78 31.76,29.81 32.02,29.82C32.89,29.88 33.76,29.94 34.63,30.01C35.94,30.11 37.25,30.21 38.56,30.32C38.75,30.33 38.94,30.33 39.13,30.37C39.61,30.45 39.89,30.75 39.93,31.24C39.97,31.9 40.01,32.56 40.04,33.22C40.08,33.8 40.11,34.38 40.14,34.96" fill="currentColor"/><path d="M26.47,21.83C26.51,22.84 26.53,23.94 26.59,25.04C26.63,25.68 26.08,25.98 25.55,25.8C25.41,25.75 25.27,25.66 25.16,25.56C23.49,23.96 21.83,22.36 20.17,20.76C19.13,19.75 18.09,18.74 17.06,17.73C16.95,17.63 16.84,17.52 16.76,17.4C16.47,16.94 16.74,16.41 17.29,16.4C17.55,16.39 17.81,16.44 18.06,16.47C19.5,16.66 20.93,16.84 22.36,17.03C23.4,17.17 24.44,17.3 25.47,17.44C25.71,17.47 25.92,17.57 26.09,17.74C26.26,17.9 26.33,18.11 26.34,18.35C26.38,19.48 26.43,20.61 26.47,21.83" fill="currentColor"/><path d="M53.04,38.44C53.08,38.85 52.71,39.14 52.27,39.01C52.1,38.96 51.94,38.86 51.81,38.74C50.88,37.87 49.96,36.99 49.04,36.11C47.69,34.81 46.35,33.51 45,32.21C44.91,32.12 44.83,32.03 44.76,31.93C44.61,31.72 44.58,31.48 44.71,31.24C44.85,31 45.07,30.94 45.33,30.96C45.82,31.01 46.31,31.07 46.8,31.13C48.01,31.27 49.22,31.42 50.43,31.58C50.79,31.62 51.15,31.67 51.51,31.73C51.96,31.81 52.24,32.12 52.3,32.57C52.54,34.45 52.78,36.33 53.02,38.2C53.03,38.28 53.03,38.36 53.04,38.44" fill="currentColor"/><path d="M39.53,23.5C39.56,24.12 39.61,24.73 39.63,25.35C39.66,25.94 39.23,26.24 38.68,26C38.54,25.94 38.41,25.84 38.3,25.73C36.92,24.44 35.55,23.14 34.18,21.85C33.34,21.06 32.48,20.28 31.64,19.5C31.55,19.42 31.45,19.34 31.38,19.25C31.22,19.06 31.15,18.85 31.26,18.62C31.37,18.4 31.57,18.31 31.8,18.33C32.17,18.36 32.54,18.41 32.9,18.46C33.96,18.6 35.01,18.75 36.06,18.91C36.88,19.02 37.7,19.14 38.52,19.27C39.03,19.35 39.29,19.66 39.32,20.17C39.39,21.28 39.46,22.39 39.53,23.5" fill="currentColor"/><path d="M26.03,12.7C26.04,12.8 26.05,12.9 26.06,13.01C26.07,13.31 25.93,13.49 25.64,13.53C25.29,13.59 24.99,13.49 24.73,13.25C24.14,12.72 23.56,12.2 22.98,11.66C21.27,10.04 19.55,8.42 17.84,6.8C17.75,6.71 17.65,6.62 17.56,6.52C17.5,6.45 17.44,6.38 17.39,6.3C17.29,6.14 17.26,5.97 17.35,5.8C17.44,5.62 17.61,5.59 17.79,5.6C17.91,5.61 18.03,5.63 18.15,5.67C20.37,6.25 22.59,6.84 24.81,7.44C24.99,7.49 25.16,7.56 25.31,7.65C25.57,7.81 25.71,8.03 25.73,8.36C25.83,9.8 25.94,11.25 26.05,12.7C26.04,12.7 26.04,12.7 26.03,12.7" fill="currentColor"/><path d="M51.62,26.38C51.62,26.65 51.46,26.81 51.21,26.84C50.92,26.86 50.69,26.74 50.49,26.54C50.04,26.09 49.6,25.64 49.14,25.2C47.83,23.92 46.52,22.65 45.21,21.37C45.11,21.28 45.01,21.17 44.94,21.06C44.77,20.75 44.93,20.43 45.28,20.38C45.36,20.37 45.45,20.37 45.54,20.38C47.19,20.69 48.84,20.99 50.48,21.3C51,21.4 51.22,21.67 51.26,22.19C51.38,23.54 51.5,24.9 51.61,26.26C51.62,26.3 51.62,26.35 51.62,26.38" fill="currentColor"/><path d="M38.91,14.23C38.91,14.3 38.92,14.38 38.93,14.46C38.94,14.75 38.82,14.9 38.53,14.93C38.29,14.97 38.07,14.91 37.86,14.78C37.78,14.74 37.71,14.67 37.64,14.61C35.81,13.1 33.98,11.59 32.15,10.08C32.03,9.99 31.91,9.9 31.81,9.8C31.7,9.69 31.61,9.57 31.66,9.4C31.73,9.23 31.89,9.18 32.04,9.17C32.17,9.17 32.3,9.19 32.43,9.21C34.23,9.58 36.03,9.94 37.83,10.3C37.98,10.33 38.12,10.38 38.25,10.45C38.5,10.57 38.64,10.76 38.66,11.06C38.73,12.11 38.83,13.17 38.92,14.22C38.91,14.22 38.91,14.23 38.91,14.23" fill="currentColor"/><path d="M50.88,15.74C50.88,15.97 50.79,16.09 50.57,16.16C50.29,16.23 50.05,16.15 49.84,15.98C49.72,15.88 49.61,15.77 49.49,15.67C48.29,14.54 47.03,13.49 45.75,12.45C45.69,12.4 45.61,12.34 45.56,12.28C45.34,12.04 45.42,11.76 45.73,11.68C45.85,11.65 45.99,11.65 46.11,11.67C46.62,11.73 47.12,11.81 47.63,11.87C48.29,11.96 48.94,12.04 49.6,12.13C49.78,12.15 49.95,12.15 50.12,12.19C50.26,12.22 50.4,12.28 50.52,12.35C50.71,12.45 50.8,12.63 50.79,12.85C50.79,13.33 50.79,13.8 50.79,14.28" fill="currentColor"/></svg>
