<svg xmlns="http://www.w3.org/2000/svg" viewBox="0 0 55.89 55.89" fill="none"><path d="M3,27.94L21.61,9.33L19.38,7.1L26.83,7.1L26.83,14.54L24.59,12.31L11.19,25.71M38.16,19.59L42.46,15.29L40.23,13.05L47.68,13.05L47.68,20.5L45.44,18.26L40.97,22.73M43.95,34.65L47.68,30.92L45.44,28.69L52.89,28.69L52.89,36.14L50.66,33.9L35.76,48.79M20.13,55.49L29.06,46.56M26.08,34.65C27.32,35.88 29.32,35.87 30.55,34.65C31.79,33.41 31.79,31.41 30.55,30.18C29.31,28.94 27.32,28.94 26.08,30.18C24.85,31.41 24.85,33.41 26.08,34.65M35.14,21.62L31.78,20.12L30.15,23.12C29.08,22.9 28.02,22.88 26.98,23.03L25.51,19.95L22.08,21.27L23.05,24.55C22.17,25.13 21.39,25.86 20.74,26.73L17.52,25.59L16.02,28.95L19.02,30.58C18.81,31.64 18.8,32.71 18.95,33.75L15.87,35.23L17.19,38.66L20.45,37.68C21.04,38.56 21.77,39.34 22.64,39.99L21.5,43.2L24.86,44.7L26.49,41.7C27.56,41.91 28.62,41.94 29.66,41.79L31.13,44.86L34.56,43.54L33.6,40.27C34.47,39.69 35.25,38.96 35.9,38.09L39.12,39.23L40.62,35.87L37.62,34.24C37.82,33.18 37.84,32.11 37.69,31.06L40.77,29.59L39.46,26.16L36.19,27.13C35.6,26.26 34.86,25.48 34,24.82L35.14,21.62M13.42,30.92L6.72,37.62" fill="none" stroke="currentColor" stroke-width="1.162" stroke-linecap="round" stroke-linejoin="round"/></svg>
